<?xml version="1.0" encoding="utf-8"?>
<!-- Generator: Adobe Illustrator 26.5.0, SVG Export Plug-In . SVG Version: 6.00 Build 0)  -->
<svg version="1.1" id="Layer_1" xmlns="http://www.w3.org/2000/svg" xmlns:xlink="http://www.w3.org/1999/xlink" x="0px" y="0px"
	 viewBox="0 0 110 110" style="enable-background:new 0 0 110 110;" xml:space="preserve">
<style type="text/css">
	.st0{clip-path:url(#SVGID_00000183961317516453518480000006470808453497368980_);}
	.st1{fill:url(#SVGID_00000070097924634704983190000015474795019635783867_);}
	.st2{fill:url(#SVGID_00000082351770410267023580000005177691919018352316_);}
	.st3{fill:url(#SVGID_00000096024522776520132650000001542098175977900211_);}
	.st4{fill:#FFFFFF;}
	.st5{fill:#383938;}
	.st6{fill:#D6D6D6;}
	.st7{fill:none;}
</style>
<g>
	<g>
		<g>
			<g>
				<defs>
					<path id="SVGID_1_" d="M108.9,79.4c0,16.2-13.3,29.5-29.5,29.5H30.6c-16.2,0-29.5-13.3-29.5-29.5V30.6
						c0-16.2,13.3-29.5,29.5-29.5h48.9c16.2,0,29.5,13.3,29.5,29.5V79.4z"/>
				</defs>
				<clipPath id="SVGID_00000041262918790754710980000005339594626750386607_">
					<use xlink:href="#SVGID_1_"  style="overflow:visible;"/>
				</clipPath>
				<g style="clip-path:url(#SVGID_00000041262918790754710980000005339594626750386607_);">
					<g>
						
							<linearGradient id="SVGID_00000077305996796842495840000000222452225340426161_" gradientUnits="userSpaceOnUse" x1="55" y1="108.9141" x2="55" y2="1.0859">
							<stop  offset="0" style="stop-color:#DCDEDD"/>
							<stop  offset="0.1264" style="stop-color:#D5D7D7"/>
							<stop  offset="0.6673" style="stop-color:#BEBEBF"/>
							<stop  offset="1" style="stop-color:#B5B6B6"/>
						</linearGradient>
						
							<rect x="1.1" y="1.1" style="fill:url(#SVGID_00000077305996796842495840000000222452225340426161_);" width="107.8" height="107.8"/>
					</g>
					
						<linearGradient id="SVGID_00000055669026023168155350000011189687480098753174_" gradientUnits="userSpaceOnUse" x1="55" y1="3.4284" x2="55" y2="45.0801">
						<stop  offset="0" style="stop-color:#FFFFFF"/>
						<stop  offset="1" style="stop-color:#FFFFFF;stop-opacity:0"/>
					</linearGradient>
					
						<rect x="1.1" y="1.1" style="fill:url(#SVGID_00000055669026023168155350000011189687480098753174_);" width="107.8" height="44.2"/>
					
						<linearGradient id="SVGID_00000152262720318009977400000009994458446909930665_" gradientUnits="userSpaceOnUse" x1="55" y1="-253.7355" x2="55" y2="-209.509" gradientTransform="matrix(1 0 0 -1 0 -146)">
						<stop  offset="0" style="stop-color:#FFFFFF"/>
						<stop  offset="1" style="stop-color:#FFFFFF;stop-opacity:0"/>
					</linearGradient>
					
						<rect x="1.1" y="64.7" style="fill:url(#SVGID_00000152262720318009977400000009994458446909930665_);" width="107.8" height="44.2"/>
					<path class="st4" d="M93.5,33.9c-2.3-3.8-5.4-7.1-9-9.7c-5.3-4-11.7-6.5-18.4-7.3c-6.6-0.9-13.6,0-19.8,2.7L23.2,29.7
						c-2.5,1.1-4.7,2.6-6.3,4.5c-2.5,2.7-4,6.1-4.4,9.6c-0.3,3.5,0.5,7.3,2.6,10.8c1.4,2.3,3.3,4.3,5.4,5.9
						c3.2,2.4,7.1,3.9,11.2,4.5c4,0.5,8.2,0,12-1.7l20-8.8c3.6-1.6,4.9-5.5,2.9-8.8c-2-3.3-6.5-4.7-10.1-3.1l-20,8.8
						c-0.8,0.3-1.5,0.5-2.3,0.5c-1.2,0-2.4-0.2-3.5-0.7c-1.1-0.5-2-1.3-2.6-2.3c-0.4-0.7-0.7-1.4-0.7-2.1c-0.1-1.1,0.1-2.1,0.6-3
						c0.5-0.9,1.4-1.6,2.5-2.1l23.1-10.1c2.4-1.1,4.9-1.6,7.5-1.7c3.8-0.2,7.7,0.7,11.1,2.4c3.4,1.7,6.3,4.2,8.3,7.5
						c1.4,2.2,2.1,4.5,2.4,6.7c0.4,3.4-0.3,6.8-2,9.7c-1.7,2.9-4.4,5.3-8,6.9L41.2,76.8L52,94.4c2,3.3,6.5,4.7,10.1,3.1
						c3.6-1.6,4.9-5.5,2.9-8.8L61.5,83l18.6-8.2c4.2-1.8,7.7-4.4,10.5-7.3c4.1-4.5,6.6-10,7.2-15.8C98.3,45.8,96.9,39.6,93.5,33.9"
						/>
					<path class="st4" d="M93.5,32.3c-2.3-3.8-5.4-7.1-9-9.7c-5.3-4-11.7-6.5-18.4-7.3c-6.6-0.9-13.6,0-19.8,2.7L23.3,28.1
						c-2.5,1.1-4.7,2.6-6.3,4.5c-2.5,2.7-4,6.1-4.4,9.6c-0.3,3.5,0.5,7.3,2.6,10.8c1.4,2.3,3.3,4.3,5.4,5.9
						c3.2,2.4,7.1,3.9,11.2,4.5c4,0.5,8.2,0,12-1.6l20-8.8c3.6-1.6,4.9-5.5,2.9-8.8c-2-3.3-6.5-4.7-10.1-3.1l-20,8.8
						c-0.8,0.3-1.5,0.5-2.3,0.5c-1.2,0-2.4-0.2-3.5-0.7c-1.1-0.5-2-1.3-2.6-2.3c-0.4-0.7-0.7-1.4-0.7-2.1c-0.1-1,0.1-2.1,0.6-3
						c0.5-0.9,1.4-1.6,2.5-2.2l23.1-10.1c2.4-1.1,4.9-1.6,7.5-1.7c3.8-0.2,7.7,0.7,11.1,2.4c3.4,1.7,6.3,4.2,8.3,7.5
						c1.3,2.2,2.1,4.5,2.4,6.7c0.4,3.4-0.3,6.8-2,9.7c-1.7,2.9-4.4,5.3-8,6.9L41.3,75.2l10.8,17.6c2,3.3,6.5,4.7,10.1,3.1
						c3.6-1.6,4.9-5.5,2.9-8.8l-3.5-5.7l18.6-8.2c4.2-1.8,7.7-4.4,10.5-7.3c4.1-4.5,6.6-10,7.2-15.8C98.4,44.2,97,38,93.5,32.3"/>
					<path class="st5" d="M92.7,32.8c-2.3-3.8-5.4-7.1-9-9.7c-5.3-4-11.7-6.5-18.4-7.3c-6.6-0.9-13.6,0-19.8,2.7L22.5,28.6
						c-2.5,1.1-4.7,2.6-6.3,4.5c-2.5,2.7-4,6.1-4.4,9.6c-0.3,3.5,0.5,7.3,2.6,10.8c1.4,2.3,3.3,4.3,5.4,5.9
						c3.2,2.4,7.1,3.9,11.2,4.4c4,0.5,8.2,0,12-1.7l20-8.8c3.6-1.6,4.9-5.5,2.9-8.8c-2-3.3-6.5-4.7-10.1-3.1l-20,8.8
						c-0.8,0.3-1.5,0.5-2.3,0.5c-1.2,0-2.4-0.2-3.5-0.7c-1.1-0.5-1.9-1.3-2.6-2.3c-0.4-0.7-0.7-1.4-0.7-2.1c-0.1-1,0.1-2.1,0.6-3
						c0.5-0.9,1.4-1.6,2.5-2.2l23.1-10.1c2.4-1.1,4.9-1.6,7.5-1.7c3.8-0.2,7.7,0.7,11.1,2.4c3.4,1.7,6.3,4.2,8.3,7.5
						c1.3,2.2,2.1,4.5,2.4,6.7c0.4,3.4-0.3,6.8-2,9.7c-1.7,2.9-4.4,5.3-8,6.9L40.5,75.7l10.8,17.6c2,3.3,6.5,4.7,10.1,3.1
						c3.6-1.6,4.9-5.5,2.9-8.8l-3.5-5.7l18.6-8.2c4.2-1.8,7.7-4.3,10.4-7.3c4.1-4.5,6.6-10,7.2-15.8C97.6,44.7,96.2,38.5,92.7,32.8"
						/>
				</g>
				<g style="clip-path:url(#SVGID_00000041262918790754710980000005339594626750386607_);">
					<g id="SVGID_00000019674488682046285500000015728444542551342485_">
						<path class="st6" d="M79.4,1.9c7.6,0,14.8,3,20.2,8.4c5.4,5.4,8.4,12.6,8.4,20.2v48.9c0,7.6-3,14.8-8.4,20.2
							c-5.4,5.4-12.6,8.4-20.2,8.4H30.6c-7.6,0-14.8-3-20.2-8.4C4.9,94.2,1.9,87,1.9,79.4V30.6c0-7.6,3-14.8,8.4-20.2
							C15.8,4.9,23,1.9,30.6,1.9H79.4 M79.4,1.1H30.6C14.4,1.1,1.1,14.4,1.1,30.6v48.9c0,16.2,13.3,29.5,29.5,29.5h48.9
							c16.2,0,29.5-13.3,29.5-29.5V30.6C108.9,14.4,95.6,1.1,79.4,1.1L79.4,1.1z"/>
					</g>
				</g>
				<g style="clip-path:url(#SVGID_00000041262918790754710980000005339594626750386607_);">
					<g id="SVGID_00000007391732868503225500000017122854111833700239_">
						<path class="st7" d="M108.9,79.4c0,16.2-13.3,29.5-29.5,29.5H30.6c-16.2,0-29.5-13.3-29.5-29.5V30.6
							c0-16.2,13.3-29.5,29.5-29.5h48.9c16.2,0,29.5,13.3,29.5,29.5V79.4z"/>
					</g>
				</g>
			</g>
		</g>
	</g>
</g>
</svg>
